<svg xmlns="http://www.w3.org/2000/svg" viewBox="0 0 1124 1124" width="1124" height="1124"><style>tspan { white-space:pre }.shp0 { fill: #ff0000;stroke: #ffffff;stroke-width: 100 } .shp1 { fill: #ffffff } </style><path class="shp0" d="M250 50.22L874 50.22C984.6 50.22 1074 139.62 1074 250.22L1074 874.22C1074 984.82 984.6 1074.22 874 1074.22L250 1074.22C139.4 1074.22 50 984.82 50 874.22L50 250.22C50 139.62 139.4 50.22 250 50.22Z" /><path class="shp1" d="M793.84 699.1C793.07 687.71 791.52 675.41 789.21 662.22C786.89 649.02 783.96 636.79 780.44 625.5C776.91 614.22 772.16 603.23 766.21 592.51C760.25 581.8 753.41 572.66 745.69 565.1C737.96 557.54 728.53 551.51 717.39 547C706.24 542.49 693.94 540.23 680.49 540.23C678.5 540.23 673.87 542.65 666.59 547.5C659.3 552.36 651.08 557.77 641.93 563.75C632.77 569.73 620.86 575.14 606.18 579.99C591.51 584.84 576.78 587.26 562 587.26C547.22 587.26 532.49 584.84 517.82 579.99C503.14 575.14 491.23 569.73 482.07 563.75C472.91 557.77 464.7 552.36 457.41 547.5C450.13 542.65 445.5 540.23 443.51 540.23C430.05 540.23 417.75 542.49 406.61 547C395.47 551.51 386.03 557.54 378.31 565.1C370.59 572.66 363.75 581.8 357.79 592.51C351.84 603.23 347.09 614.22 343.56 625.5C340.03 636.79 337.11 649.02 334.79 662.22C332.48 675.41 330.93 687.71 330.16 699.1C329.38 710.5 329 722.17 329 734.13C329 761.2 337.05 782.57 353.16 798.25C369.26 813.93 390.67 821.77 417.37 821.77L706.63 821.77C733.33 821.77 754.73 813.93 770.84 798.25C786.94 782.57 795 761.2 795 734.13C795 722.17 794.61 710.5 793.84 699.1ZM562 302C526.92 302 496.97 314.69 472.14 340.07C447.32 365.45 434.91 396.07 434.91 431.94C434.91 467.81 447.32 498.44 472.14 523.82C496.97 549.19 526.92 561.88 562 561.88C597.08 561.88 627.03 549.19 651.86 523.82C676.68 498.44 689.09 467.81 689.09 431.94C689.09 396.07 676.68 365.45 651.86 340.07C627.03 314.69 597.08 302 562 302Z" /></svg>